<svg width="89" height="89" viewBox="0 0 89 89" fill="none" xmlns="http://www.w3.org/2000/svg">
<path d="M7.52506 54.6952C6.14471 54.6952 4.90776 54.4651 3.81423 54.0048C2.72071 53.5445 1.84682 52.8633 1.1925 51.9612C0.53818 51.0591 0.19308 49.9728 0.157227 48.7025H5.05117C5.12288 49.4205 5.3649 49.9682 5.77721 50.3456C6.18953 50.723 6.72733 50.9118 7.39061 50.9118C8.07182 50.9118 8.60963 50.7507 9.00401 50.4285C9.3984 50.1063 9.59561 49.6599 9.59561 49.0892C9.59561 48.6105 9.43877 48.2146 9.12505 47.9016C8.81134 47.5886 8.42587 47.3308 7.96874 47.1283C7.51161 46.9258 6.86178 46.6957 6.01923 46.4379C4.80022 46.0513 3.80529 45.6648 3.03444 45.2781C2.2636 44.8915 1.60031 44.3207 1.04459 43.5659C0.48886 42.8111 0.211045 41.8261 0.211045 40.611C0.211045 38.8067 0.847417 37.3938 2.12021 36.372C3.393 35.3502 5.05121 34.8392 7.09485 34.8392C9.17434 34.8392 10.8504 35.3502 12.1232 36.372C13.396 37.3938 14.0773 38.816 14.1669 40.6387H9.19227C9.15642 40.0127 8.9323 39.5201 8.51999 39.1611C8.10767 38.8021 7.57889 38.6226 6.93353 38.6226C6.3778 38.6226 5.92962 38.7745 5.58902 39.0783C5.24841 39.382 5.07812 39.8193 5.07812 40.39C5.07812 41.016 5.36495 41.5039 5.9386 41.8537C6.51225 42.2035 7.40854 42.5809 8.62755 42.9859C9.84656 43.4094 10.837 43.8145 11.5989 44.2011C12.3607 44.5877 13.0196 45.1492 13.5753 45.8856C14.131 46.6221 14.4089 47.5703 14.4089 48.7302C14.4089 49.8348 14.1355 50.8382 13.5887 51.7403C13.042 52.6424 12.2487 53.3604 11.209 53.8943C10.1693 54.4282 8.94126 54.6952 7.52506 54.6952Z" fill="#AEC4D0"/>
<path d="M24.8496 38.9264C26.5705 38.9264 27.9509 39.5109 28.9907 40.6799C30.0304 41.849 30.5503 43.4555 30.5503 45.4991V54.5019H25.979V46.1342C25.979 45.1032 25.719 44.3024 25.1992 43.7316C24.6793 43.1609 23.9801 42.8755 23.1017 42.8755C22.2233 42.8755 21.5242 43.1609 21.0043 43.7316C20.4844 44.3024 20.2245 45.1032 20.2245 46.1342V54.5019H15.6263V27.0261H20.2245V41.1633C20.6906 40.4821 21.3271 39.9389 22.1338 39.5339C22.9405 39.1289 23.8457 38.9264 24.8496 38.9264Z" fill="#AEC4D0"/>
<path d="M46.8259 46.5485C46.8259 46.9903 46.799 47.4506 46.7452 47.9292H36.3388C36.4105 48.8866 36.7108 49.6184 37.2396 50.1247C37.7684 50.631 38.4183 50.8841 39.1891 50.8841C40.3364 50.8841 41.1341 50.387 41.5823 49.3929H46.4763C46.2253 50.4054 45.7726 51.3168 45.1183 52.1268C44.464 52.9369 43.6439 53.5721 42.6579 54.0323C41.672 54.4926 40.5694 54.7229 39.3504 54.7229C37.8804 54.7229 36.5718 54.4006 35.4245 53.7562C34.2772 53.1118 33.3809 52.1914 32.7355 50.9947C32.0902 49.798 31.7675 48.3987 31.7675 46.797C31.7675 45.1952 32.0857 43.7961 32.7221 42.5994C33.3585 41.4027 34.2504 40.4821 35.3977 39.8377C36.545 39.1934 37.8625 38.8712 39.3504 38.8712C40.8025 38.8712 42.0932 39.1841 43.2226 39.8101C44.3519 40.436 45.2348 41.329 45.8712 42.4888C46.5076 43.6487 46.8259 45.002 46.8259 46.5485ZM42.1201 45.3057C42.1201 44.4956 41.8512 43.8513 41.3134 43.3726C40.7756 42.8939 40.1034 42.6546 39.2967 42.6546C38.5258 42.6546 37.876 42.8847 37.3472 43.345C36.8183 43.8052 36.4911 44.4588 36.3656 45.3057H42.1201Z" fill="#AEC4D0"/>
<path d="M55.6801 50.4976V54.5019H53.3407C51.6735 54.5019 50.3737 54.083 49.4415 53.2453C48.5093 52.4076 48.0433 51.0407 48.0433 49.1444V27.0261H52.6415V39.092H55.6532V43.0136H52.6415V49.1996C52.6415 49.6598 52.749 49.9912 52.9642 50.1938C53.1793 50.3963 53.5378 50.4976 54.0397 50.4976H55.6801Z" fill="#AEC4D0"/>
<path d="M66.0407 54.5018L61.4693 48.0395V54.5018H56.8711V31.7253H61.4693V45.3608L66.0137 39.0919H71.6874L65.449 46.8245L71.7413 54.5018H66.0407Z" fill="#AEC4D0"/>
<path d="M66.0541 27.0262H61.4769V31.7271H66.0541V27.0262Z" fill="#AEC4D0"/>
<path d="M88.8165 39.092L79.405 61.8202H74.4572L77.8992 53.9772L71.7952 39.092H76.9311L80.3999 48.7302L83.8418 39.092H88.8165Z" fill="#AEC4D0"/>
</svg>
